# xmcd
#
# Track frame offsets:
#	150
#	11787
#	22842
#	36527
#	52727
#	64270
#	80640
#	95075
#	108747
#	122117
#
# Disc length: 1755 seconds
#
# Revision: 2
# Processed by: cddbd v1.4PL0 Copyright (c) Steve Scherf et al.
# Submitted via: dBpowerAMP V4.0
#
DISCID=8606d90a
DTITLE=Willie Nelson - Somewhere Over The Rainbow
DYEAR=1985
DGENRE=Country
TTITLE0=Mona Lisa
TTITLE1=Exactly Like You
TTITLE2=Who's Sorry Now?
TTITLE3=I'm Confessin' (That I Love You)
TTITLE4=Won't You Ride In My Little Red Wagon
TTITLE5=Over The Rainbow
TTITLE6=In My Mother's Eyes
TTITLE7=I'm Gonna Sit Right Down And Write Myself A Letter
TTITLE8=It Wouldn't Be The Same Without You
TTITLE9=Twinkle, Twinkle Little Star
EXTD=
EXTT0=
EXTT1=
EXTT2=
EXTT3=
EXTT4=
EXTT5=
EXTT6=
EXTT7=
EXTT8=
EXTT9=
PLAYORDER=
